<?xml version="1.0" standalone="no"?>
<!DOCTYPE svg PUBLIC "-//W3C//DTD SVG 20010904//EN"
 "http://www.w3.org/TR/2001/REC-SVG-20010904/DTD/svg10.dtd">
<svg version="1.0" xmlns="http://www.w3.org/2000/svg"
 width="250.000000pt" height="250.000000pt" viewBox="0 0 250.000000 250.000000"
 preserveAspectRatio="xMidYMid meet">
<metadata>
Created by potrace 1.11, written by Peter Selinger 2001-2013
</metadata>
<g transform="translate(0.000000,250.000000) scale(0.100000,-0.100000)"
fill="#000000" stroke="none">
<path d="M1115 1783 c-71 -113 -135 -211 -141 -217 -6 -6 -13 -16 -15 -21 -10
-23 -85 -135 -90 -135 -23 0 -24 165 -3 236 7 23 20 56 28 72 9 17 16 35 16
39 0 12 -88 -85 -108 -119 -9 -15 -19 -28 -22 -28 -3 0 -171 61 -375 136 -203
75 -378 138 -387 141 -14 4 -8 -22 33 -146 44 -132 54 -151 72 -152 12 0 29
-2 37 -4 21 -4 215 -33 275 -41 28 -3 60 -8 72 -9 13 -2 40 -6 60 -9 21 -4 54
-9 73 -11 107 -13 110 -14 110 -51 0 -32 -2 -34 -32 -35 -18 0 -44 -2 -58 -4
-14 -1 -65 -6 -114 -10 -50 -4 -97 -8 -106 -10 -9 -2 -56 -6 -106 -10 -49 -4
-96 -9 -104 -11 -8 -1 -28 -3 -43 -3 l-28 -1 62 -120 c34 -66 64 -120 68 -120
4 0 42 14 86 31 44 17 85 32 90 33 6 2 19 7 30 11 46 18 144 55 208 79 l68 25
9 -25 c6 -14 10 -28 10 -32 -1 -6 -269 -206 -318 -237 -60 -38 -60 -38 34
-100 l88 -58 25 30 c14 16 47 54 72 84 138 162 154 179 163 179 3 0 14 -9 24
-21 20 -20 19 -21 -14 -90 -19 -38 -34 -72 -34 -74 0 -2 -16 -37 -35 -76 -19
-40 -33 -74 -31 -77 5 -4 66 -19 116 -28 19 -3 38 -8 42 -10 10 -6 29 75 44
181 2 17 6 39 8 50 3 11 5 28 5 38 1 13 10 17 35 17 49 0 89 37 88 79 -1 42
-24 67 -89 98 -48 23 -133 101 -133 122 0 5 156 9 370 9 204 0 370 -3 370 -8
0 -10 -40 -61 -65 -82 -11 -10 -40 -27 -63 -38 -61 -29 -92 -63 -92 -100 0
-43 39 -80 85 -80 19 0 35 -3 35 -6 0 -13 41 -249 46 -266 4 -13 11 -15 35 -8
16 5 32 9 34 9 7 -1 66 11 87 17 22 6 21 9 -50 158 -34 71 -62 134 -62 141 0
6 9 20 21 31 23 21 24 20 122 -99 18 -21 41 -49 52 -61 12 -12 38 -43 59 -69
37 -45 51 -49 81 -25 6 5 38 26 73 48 35 22 61 44 58 48 -2 4 -85 66 -185 137
-99 72 -180 133 -181 137 0 4 4 18 10 32 l9 25 68 -25 c37 -13 102 -38 143
-54 41 -15 111 -42 155 -59 127 -49 118 -53 185 79 32 63 57 116 56 117 -2 2
-29 5 -62 8 -61 5 -150 13 -219 20 -22 2 -74 7 -115 11 -41 4 -86 9 -100 10
-14 1 -40 3 -57 3 -31 1 -33 3 -33 35 0 36 3 37 117 51 13 2 40 6 60 9 21 4
56 9 78 11 49 6 104 14 130 19 17 3 71 11 145 21 8 1 38 6 67 10 l52 7 49 147
c28 80 49 147 47 149 -2 2 -139 -46 -230 -81 -16 -7 -32 -12 -35 -13 -3 0 -12
-3 -20 -7 -8 -3 -64 -23 -125 -45 -60 -22 -168 -62 -238 -88 -118 -44 -130
-47 -139 -31 -18 33 -110 138 -115 133 -3 -3 1 -16 9 -28 39 -62 63 -245 40
-307 -7 -18 -10 -16 -39 27 -51 76 -214 329 -284 439 -35 57 -66 103 -69 102
-3 0 -63 -92 -135 -206z m252 -162 c-11 -20 -43 -69 -69 -109 l-47 -74 -64 99
c-35 54 -66 103 -69 109 -5 7 36 10 132 10 l139 0 -22 -35z"/>
<path d="M1240 1294 c-7 -21 -27 -68 -45 -104 -44 -88 -65 -136 -65 -149 0 -6
-14 -26 -31 -46 -18 -20 -30 -37 -28 -39 2 -2 18 -11 35 -19 18 -9 45 -30 62
-47 32 -32 34 -54 11 -127 -9 -28 -6 -47 21 -120 47 -131 52 -140 57 -123 3 8
21 59 40 112 21 59 32 105 28 117 -3 12 -9 33 -11 48 -3 15 -7 29 -9 31 -2 2
1 16 6 30 7 22 54 61 118 99 1 1 -10 19 -27 40 -16 21 -33 49 -37 63 -4 14
-23 57 -43 95 -19 39 -43 94 -52 124 l-17 55 -13 -40z"/>
<path d="M1018 773 c-22 -49 -43 -90 -45 -92 -2 -3 -47 -6 -101 -7 -120 -2
-112 -1 -112 -20 0 -17 26 -43 90 -92 19 -15 43 -35 53 -46 19 -21 22 -10 8
26 -13 31 -22 62 -22 68 1 3 28 6 62 7 l61 1 -6 -34 c-4 -19 -4 -34 0 -34 3 0
28 21 55 47 40 39 46 49 38 65 -6 11 -17 17 -25 14 -8 -3 -14 0 -14 6 0 12 38
77 57 96 16 17 17 54 1 70 -7 7 -23 12 -35 12 -20 0 -30 -14 -65 -87z"/>
<path d="M1375 830 c-5 -24 1 -40 35 -90 22 -33 39 -60 38 -61 -2 0 -12 -2
-22 -4 -42 -8 -37 -29 19 -82 60 -57 72 -64 55 -34 -5 11 -10 28 -10 39 0 16
7 18 63 17 34 -1 63 -3 64 -3 1 -1 -7 -23 -18 -48 -22 -48 -21 -64 2 -42 8 8
42 35 77 62 36 29 62 57 62 67 0 22 5 21 -119 23 -60 1 -96 6 -98 13 -2 6 -22
48 -43 92 -36 74 -42 81 -69 81 -24 0 -30 -5 -36 -30z"/>
</g>
</svg>
